<svg xmlns="http://www.w3.org/2000/svg" viewBox="0 0 860 180" role="img" aria-labelledby="title desc">
  <title id="title">Serhat Tanrıverdi web header logo</title>
  <desc id="desc">Açık ayna ikonu yanında Serhat Tanrıverdi ve Uzman Klinik Psikolog yazısı.</desc>
  <rect width="860" height="180" fill="none"/>
  <g transform="translate(42,18) scale(.28)" fill="none" stroke="#3A3A3A" stroke-linecap="round" stroke-linejoin="round">
    <path d="M331 91 C252 57 150 105 127 209 C104 317 168 409 236 422" stroke-width="8"/>
    <path d="M330 91 C399 126 431 206 416 285" stroke-width="7" opacity=".9"/>
    <path d="M414 292 C402 349 363 398 306 421" stroke-width="7" opacity=".9"/>
    <path d="M260 422 C241 437 221 439 198 428" stroke-width="6"/>
    <path d="M268 422 C288 438 309 439 333 428" stroke-width="6"/>
    <path d="M191 126 C180 172 188 205 216 239 C228 254 219 276 232 294 C244 310 264 314 251 334 C241 348 264 354 248 366 C237 374 253 381 244 390 C239 395 247 402 260 410" stroke-width="6"/>
  </g>
  <text x="190" y="78" font-family="Cormorant Garamond, Playfair Display, Georgia, serif" font-size="42" letter-spacing="12" fill="#3A3A3A">SERHAT TANRIVERDİ</text>
  <line x1="190" y1="99" x2="255" y2="99" stroke="#A98F73" stroke-width="1.2"/>
  <text x="190" y="132" font-family="Inter, Helvetica, Arial, sans-serif" font-size="17" letter-spacing="10" fill="#4B4B4B">UZMAN KLİNİK PSİKOLOG</text>
</svg>
